<?xml version="1.0" encoding="UTF-8"?>
<svg width="157px" height="32px" viewBox="0 0 157 32" version="1.1" xmlns="http://www.w3.org/2000/svg" xmlns:xlink="http://www.w3.org/1999/xlink">
    <!-- Generator: Sketch 52.4 (67378) - http://www.bohemiancoding.com/sketch -->
    <title>YOURSTORY</title>
    <desc>Created with Sketch.</desc>
    <g id="Specifications" stroke="none" stroke-width="1" fill="none" fill-rule="evenodd">
        <g id="Logos" transform="translate(-50.000000, -164.000000)" fill="#EF4136">
            <path d="M56.2434045,195.598326 L56.2434045,185.244073 L50,164.357043 L55.1654066,164.357043 L58.8934826,178.594142 L58.9833158,178.594142 L62.7113918,164.357043 L67.4276326,164.357043 L61.1842282,185.244073 L61.1842282,195.598326 L56.2434045,195.598326 Z M73.2667879,171.542538 L73.2667879,188.412831 C73.2667879,190.644351 74.2549526,191.492329 75.8270329,191.492329 C77.3991132,191.492329 78.3872779,190.644351 78.3872779,188.412831 L78.3872779,171.542538 C78.3872779,169.311018 77.3991132,168.46304 75.8270329,168.46304 C74.2549526,168.46304 73.2667879,169.311018 73.2667879,171.542538 Z M68.3259642,188.100418 L68.3259642,171.854951 C68.3259642,166.856346 70.9760424,164 75.8270329,164 C80.6780234,164 83.3281016,166.856346 83.3281016,171.854951 L83.3281016,188.100418 C83.3281016,193.099024 80.6780234,195.95537 75.8270329,195.95537 C70.9760424,195.95537 68.3259642,193.099024 68.3259642,188.100418 Z M86.2925958,164.357043 L91.2334195,164.357043 L91.2334195,188.457462 C91.2334195,190.688982 92.2215842,191.492329 93.7936645,191.492329 C95.3657447,191.492329 96.3539095,190.688982 96.3539095,188.457462 L96.3539095,164.357043 L101.025234,164.357043 L101.025234,188.145049 C101.025234,193.143654 98.5099053,196 93.6589147,196 C88.8079242,196 86.2925958,193.143654 86.2925958,188.145049 L86.2925958,164.357043 Z M119.755447,195.598326 L114.72479,195.598326 C114.455291,194.794979 114.275624,194.304045 114.275624,191.760112 L114.275624,186.850767 C114.275624,183.949791 113.28746,182.878661 111.041631,182.878661 L109.334801,182.878661 L109.334801,195.598326 L104.393977,195.598326 L104.393977,164.357043 L111.850129,164.357043 C116.970619,164.357043 119.171532,166.722455 119.171532,171.542538 L119.171532,173.997211 C119.171532,177.2106 118.13845,179.263598 115.937538,180.290098 L115.937538,180.379358 C118.40795,181.405858 119.216448,183.726639 119.216448,186.984658 L119.216448,191.804742 C119.216448,193.322176 119.261365,194.437936 119.755447,195.598326 Z M111.715379,168.820084 L109.334801,168.820084 L109.334801,178.415621 L111.266214,178.415621 C113.107793,178.415621 114.230708,177.612273 114.230708,175.112971 L114.230708,172.033473 C114.230708,169.801953 113.467126,168.820084 111.715379,168.820084 Z M121.82161,171.854951 C121.82161,166.856346 124.292022,164 129.098096,164 C133.904169,164 136.374581,166.856346 136.374581,171.854951 L136.374581,172.83682 L131.703257,172.83682 L131.703257,171.542538 C131.703257,169.311018 130.804926,168.46304 129.232845,168.46304 C127.660765,168.46304 126.762433,169.311018 126.762433,171.542538 C126.762433,173.818689 127.750598,175.514644 130.984592,178.32636 C135.116917,181.941423 136.419498,184.529986 136.419498,188.100418 C136.419498,193.099024 133.904169,195.95537 129.053179,195.95537 C124.202188,195.95537 121.68686,193.099024 121.68686,188.100418 L121.68686,186.181311 L126.358184,186.181311 L126.358184,188.412831 C126.358184,190.644351 127.346349,191.447699 128.918429,191.447699 C130.490509,191.447699 131.478674,190.644351 131.478674,188.412831 C131.478674,186.136681 130.490509,184.440725 127.256516,181.62901 C123.124191,178.013947 121.82161,175.425384 121.82161,171.854951 Z M137.811912,168.820084 L137.811912,164.357043 L153.083549,164.357043 L153.083549,168.820084 L147.918142,168.820084 L147.918142,195.598326 L142.977318,195.598326 L142.977318,168.820084 L137.811912,168.820084 Z M159.776119,171.542538 L159.776119,188.412831 C159.776119,190.644351 160.764284,191.492329 162.336364,191.492329 C163.908444,191.492329 164.896609,190.644351 164.896609,188.412831 L164.896609,171.542538 C164.896609,169.311018 163.908444,168.46304 162.336364,168.46304 C160.764284,168.46304 159.776119,169.311018 159.776119,171.542538 Z M154.835295,188.100418 L154.835295,171.854951 C154.835295,166.856346 157.485373,164 162.336364,164 C167.187354,164 169.837433,166.856346 169.837433,171.854951 L169.837433,188.100418 C169.837433,193.099024 167.187354,195.95537 162.336364,195.95537 C157.485373,195.95537 154.835295,193.099024 154.835295,188.100418 Z M188.38798,195.598326 L183.357323,195.598326 C183.087823,194.794979 182.908157,194.304045 182.908157,191.760112 L182.908157,186.850767 C182.908157,183.949791 181.919992,182.878661 179.674163,182.878661 L177.967333,182.878661 L177.967333,195.598326 L173.02651,195.598326 L173.02651,164.357043 L180.482662,164.357043 C185.603152,164.357043 187.804064,166.722455 187.804064,171.542538 L187.804064,173.997211 C187.804064,177.2106 186.770983,179.263598 184.570071,180.290098 L184.570071,180.379358 C187.040482,181.405858 187.848981,183.726639 187.848981,186.984658 L187.848981,191.804742 C187.848981,193.322176 187.893897,194.437936 188.38798,195.598326 Z M180.347912,168.820084 L177.967333,168.820084 L177.967333,178.415621 L179.898746,178.415621 C181.740326,178.415621 182.863241,177.612273 182.863241,175.112971 L182.863241,172.033473 C182.863241,169.801953 182.099659,168.820084 180.347912,168.820084 Z M195.260216,195.598326 L195.260216,185.244073 L189.016812,164.357043 L194.182218,164.357043 L197.910294,178.594142 L198.000128,178.594142 L201.728204,164.357043 L206.444444,164.357043 L200.20104,185.244073 L200.20104,195.598326 L195.260216,195.598326 Z" id="YOURSTORY"></path>
        </g>
    </g>
</svg>