<?xml version="1.0" encoding="utf-8"?>
<!-- Generator: Adobe Illustrator 23.0.3, SVG Export Plug-In . SVG Version: 6.00 Build 0)  -->
<svg version="1.1" id="bf56719a-dd30-4b09-833f-7c41eeee086b"
	 xmlns="http://www.w3.org/2000/svg" xmlns:xlink="http://www.w3.org/1999/xlink" x="0px" y="0px" viewBox="0 0 1094 760"
	 style="enable-background:new 0 0 1094 760;" xml:space="preserve">
<style type="text/css">
	.st0{opacity:0.1;fill:#6C63FF;enable-background:new    ;}
	.st1{opacity:0.77;fill:#27273A;enable-background:new    ;}
	.st2{fill:#3F3D56;}
	.st3{fill:#FFFFFF;}
	.st4{fill:#192534;}
	.st5{fill:#FBBEBE;}
	.st6{fill:#F2F2F2;}
	.st7{fill:#6C63FF;}
	.st8{opacity:0.1;enable-background:new    ;}
</style>
<title>career process</title>
<path class="st0" d="M299.2,344h115.9c4.1,0,7.4,3.3,7.4,7.4v24.7c0,4.1-3.3,7.4-7.4,7.4H299.2c-4.1,0-7.4-3.3-7.4-7.4v-24.7
	C291.8,347.4,295.1,344,299.2,344z"/>
<path class="st0" d="M299.2,284.8h115.9c4.1,0,7.4,3.3,7.4,7.4v24.7c0,4.1-3.3,7.4-7.4,7.4H299.2c-4.1,0-7.4-3.3-7.4-7.4v-24.7
	C291.8,288.1,295.1,284.8,299.2,284.8z"/>
<path class="st0" d="M299.2,205.7h115.9c4.1,0,7.4,3.3,7.4,7.4v24.7c0,4.1-3.3,7.4-7.4,7.4H299.2c-4.1,0-7.4-3.3-7.4-7.4v-24.7
	C291.8,209,295.1,205.7,299.2,205.7z"/>
<path class="st0" d="M299.2,146.4h115.9c4.1,0,7.4,3.3,7.4,7.4v24.7c0,4.1-3.3,7.4-7.4,7.4H299.2c-4.1,0-7.4-3.3-7.4-7.4v-24.7
	C291.8,149.8,295.1,146.4,299.2,146.4z"/>
<ellipse class="st1" cx="547" cy="660.5" rx="547" ry="99.5"/>
<polygon class="st2" points="240,321 194,603 402,581 393,557 230.5,570.5 268.5,320.5 "/>
<polygon class="st2" points="186,1 466,0 547,613 266,651 "/>
<polygon class="st3" points="216.5,24.5 442.5,24.5 521.5,594.5 288.5,626.5 "/>
<path class="st2" d="M429.6,568.9c1.4,2.7,2.5,5.7,4.3,8.1c5.4,7.2,15.6,8.3,23.3,13.1c0.4,0.2,0.7,0.5,0.9,0.9
	c0.4,0.8-0.4,1.7-1.2,2.2c-5.8,4.1-13.5,4.2-20.6,4.1c-2.4,0.1-4.8-0.1-7.1-0.7c-3.8-1-7-3.6-10.7-4.7c-1.9-0.5-3.9-0.8-5.9-0.8
	l-7.8-0.5c-2.1,0-4.1-0.4-6.1-1.1c-2-0.8-3.4-2.5-3.8-4.5c-0.2-1.7,0.5-3.3,0.9-4.9c1-3.8,0.7-8.5,3.7-11.1c1.2-0.9,2.6-1.6,4.1-2
	c5.4-1.8,11-3.3,16.6-4.4C424.9,561.5,427.6,564.9,429.6,568.9z"/>
<path class="st2" d="M341.3,590.5c0.2,2.1,0.3,4.6-1.3,6.1c-1,0.8-2.1,1.3-3.4,1.5c-7.4,1.7-15.6,1.8-22.1-2.2
	c-0.7-0.4-1.3-0.9-1.7-1.5c-0.5-0.8-0.8-1.8-0.9-2.8c-0.2-2.8,0.6-5.6,1.4-8.3c1.9-6.5,3.3-13.1,4.3-19.8c0.1-0.5,18.9,3,20.1,4.9
	c1.6,2.3,1.6,7.8,2,10.6C340.4,582.8,340.9,586.6,341.3,590.5z"/>
<path class="st4" d="M411.2,330.3l5,46.5c1,9.5,2,19,1.4,28.6c-0.8,11-3.9,22-2.6,32.9c0.5,4.2,1.7,8.4,1.8,12.7
	c0,2.8-0.1,5.7-0.4,8.5c-2.3,28.2,4.9,56.2,8.9,84.2c0.6,3.5,0.8,7,0.4,10.5c-0.5,3.5-1.6,8.2,1.6,9.9l-29.7,10.8
	c-3.8-4.8-1.3-12.1-2-18.2c-0.7-5.4-3.6-10.3-5.2-15.5c-1.4-4.7-1.7-9.7-2.2-14.5c-2.6-26.6-10.5-52.5-12.4-79.1
	c-0.1-2.6-0.4-5.1-1-7.6c-1-3.3-3-6.2-4.5-9.3c-2.2-4.7-3.3-9.8-4.4-14.9l-6.4-29.8c-6.4,9.6-6.2,22-7.4,33.5
	c-1.8,16-5.8,31.7-9,47.5c-0.8,3.4-1.3,6.8-1.7,10.3c-0.8,9.3,0.8,18.6-0.1,27.9c-1,10.7-5.5,21.2-4.4,31.9
	c0.6,5.9,2.9,11.6,4.4,17.3s2.3,12.1,0,17.6c-8.2-3-17-4-25.7-2.8c-9.5-9.8-11.2-23.3-11.9-37s0.9-27.3-0.8-40.8
	c-0.5-4-1.3-7.9-1.4-11.9c-0.4-12.8,5.7-24.8,8.8-37.2c2.8-11.2,3-22.8,0.8-34.1c-1.5-7.5-4.1-14.7-5-22.3
	c-1.3-10.6,0.9-21.3,3-31.8c1.4-7.1,2.9-14.1,4.5-21.2c1.7-7.5,3.8-15.3,8.5-21.4c7.4-9.9,20.6-14.3,33-13.3s23.9,6.6,34.1,13.6
	C397.2,317,404.6,323.2,411.2,330.3z"/>
<path class="st5" d="M378.1,152.3c-0.6,0.9-1,1.9-1.1,2.9c-0.3,2.1,1,3.9,2,5.7c1.3,2.3,2.3,4.8,2.9,7.3c0.5,1.6,0.6,3.2,0.4,4.9
	c-0.2,1.2-0.7,2.4-1.3,3.5c-1.9,3.7-4.8,7.2-8.7,8.7c-3,1.1-6.3,1.2-9.4,0.4c-3.1-0.9-6-2.2-8.6-4.1c-2.2-1.4-4.2-3.1-5.9-5.1
	c-1.6-2.2-3-4.5-4.1-7c-2.1-4.4-4.2-9-3.8-13.8c0-0.4,0.1-0.9,0.2-1.3c0.3-0.7,0.8-1.4,1.3-2c4.3-5.1,6.5-11.5,6.1-18.1l14.6,3.3
	c3.2,0.7,6.4,1.5,9.6,2.4c2.6,0.8,6.6,1.8,8.3,4.1S379.2,150.1,378.1,152.3z"/>
<circle class="st5" cx="370.3" cy="123.3" r="26.5"/>
<path class="st6" d="M366,176.7c1.1-2.4,3.5-4,5.8-5.5s4.5-3.5,4.9-6.2c0-0.6,0.2-1.2,0.4-1.7c0.9-1.3,2.9-0.6,4.1,0.3
	c2.9,2.3,4.9,5.5,6.9,8.7c2.5,3.9,4.7,7.9,6.5,12.2c2.8,7.4,3.1,15.5,3.5,23.4c0.3,7.2,0.5,14.5-1.2,21.5c-1.1,4.4-3,8.7-3.1,13.3
	c-0.3,16.5-6.1,32.3-6.5,48.9c0,4.8,0.2,9.6,0.7,14.3l0.9,10.7c-14.5-0.8-29-2.1-43.5-3.8c-0.4-4.9-1.8-9.7-3.1-14.5
	c-5.3-19.5-8.7-39.5-10.1-59.7c-0.8-10.7-1.6-21.4-2.8-32.1c-1.1-9.7-3.2-19.5-1.9-29.2c0.7-4.4,2-8.7,4.1-12.6
	c0.6-1.6,1.8-2.9,3.2-3.8c0.7-0.3,1.5-0.6,2.3-0.7c2.3-0.5,4.6-0.7,6.9-0.8c0.6,0,1.1,0,1.7,0.2c1,0.5,1.8,1.3,2.3,2.2
	C352.3,168.3,358.6,173.5,366,176.7z"/>
<path class="st7" d="M353.7,174.6c1.9,2.7,5.8,3.3,7.5,6c0.6,1.1,1,2.3,1.3,3.6c1,3.4,3.2,6.3,4.5,9.5c1.9,4.7,1.9,9.9,1.9,15
	c0.2,4-0.1,8.1-0.9,12c-0.6,2.5-1.6,4.8-2.3,7.3c-1.2,4.1-1.7,8.5-1.3,12.8c0,0.9,0.2,1.8,0.7,2.6c0.7,0.8,1.6,1.4,2.6,1.7
	c2.9,1.3,6,2.6,9.2,2.3c0.7,0,1.3-0.2,1.8-0.6c0.4-0.3,0.7-0.7,0.9-1.2l2-3.4c1.8-3.1,3.7-6.5,3-10.1c-0.5-1.8-1.3-3.6-2.3-5.2
	c-1.3-2.6-2.4-5.3-3.3-8.1c-3.2-9.2-6.4-18.5-7.1-28.1c-0.4-3.7,0-7.4,1.2-10.9c0.9-2.2,2.1-4.2,3.5-6.1c-0.6-0.9-1.8-1.2-2.8-0.9
	c-1,0.3-2,0.7-2.9,1.2c-2.9,1.2-6.2,0.8-9.2-0.1c-1.2-0.3-3-1.5-4.2-1.4C357.1,172.6,353.8,174.7,353.7,174.6z"/>
<path class="st6" d="M377.1,174.5c-0.6-0.5-1.5-0.9-2.1-0.4c-0.2,0.2-0.3,0.5-0.4,0.8c-0.5,1.4-2,2.1-3.4,2.6s-2.9,0.8-3.7-0.2
	c-0.5-0.8-0.5-1.9,0.1-2.7c0.6-0.7,1.4-1.4,2.2-1.9c4.6-3.2,7.7-8.2,8.7-13.7c1.3,1,2.1,2.5,2.4,4.1c0.3,1.6,0.4,3.2,0.7,4.8
	c0.5,2.3,1.6,4.4,1.8,6.7c0.1,1.2,0,2.5,0,3.7c0,1.2,0.2,2.4,0.4,3.6C381.6,179.6,379.9,176.7,377.1,174.5z"/>
<path class="st6" d="M356.9,167.7c-1-0.9-2-1.9-3-2.8c-4.4-4.3-7.7-9.5-9.7-15.4c-1.3,1-2.7,2.3-2.7,4c0.1,1.2,0.6,2.3,1.3,3.3
	c3.8,6,6.3,12.6,7.3,19.6c1.1-1.7,3-2.7,5-2.7c1.6,0,8.7,4.2,9.2,3.1C365.1,175.2,358.1,168.8,356.9,167.7z"/>
<path class="st2" d="M379.2,159.7c9.4,9.4,20.9,16.3,33.6,20.3c1.3,0.3,2.4,0.9,3.4,1.7c0.7,0.9,1.2,2,1.4,3.1
	c2.4,9.5,3.3,19.4,4.1,29.2c0.2,1.6,0.2,3.3-0.1,4.9c-0.6,2.6-2.5,4.7-4.3,6.7c-5.7,6.1-12.3,12.6-13.3,20.9
	c-0.1,1.6-0.3,3.2-0.6,4.8c-0.5,1.9-1.6,3.5-2.3,5.3c-3.3,8.9,4.2,19.7-0.4,28c2.5,4.8,4.2,9.9,5.1,15.3c0.2,2,0.6,4,1.4,5.9
	c1.4,2.9,4.2,4.7,6.4,7c6.8,6.9,7.6,17.6,8,27.3c0.3,5.5,0.2,11.7-4,15.3c-2.4,2.1-5.7,2.8-8.9,3.3c-4.2,0.7-8.8,1.2-12.5-0.9
	c-2.7-1.5-4.5-4.1-6.2-6.6c-3.3-4.8-6.6-9.5-9.7-14.4c-4.9-7.7-9.6-16.5-8.1-25.6c-0.4,9.3-2.4,18.6-6.9,26.6s-11.9,14.8-20.7,17.5
	s-19.2,0.8-25.9-5.7c-2.2-2.2-4-4.7-5.5-7.4c-3.8-6.4-6.5-13.4-8.1-20.7c-0.4-1.9-0.8-4,0.2-5.7c0.5-0.8,1.1-1.4,1.6-2.2
	c1.6-2.7,0.1-6.1-1.5-8.8c-2.3,0.2-4-2.5-3.8-4.9s1.6-4.4,2.6-6.5c2.9-6.3,2.3-13.6,0.9-20.4s-3.5-13.5-3.3-20.4
	c0.2-7.3-5.1-13.9-9.1-20c-2.2-3.4-4.9-6.6-6.8-10.3c-4.1-7.6-5-16.5-2.6-24.8c1.4-4.3,3.2-8.3,5.5-12.2l3.3-6.2c1.2-3,3.8-5.2,7-6
	l22.8-9c2.9-1,5.7-2.4,8.2-4.1c2.8-2.1,4.9-5,7.5-7.2c0.8-0.8,1.9-1.3,3-1.3c2.1,0.2,2.9,2.9,3.1,5c0.5,4.7,4,8.7,5.2,13.3
	c6.4,25.3,20.1,48.7,23.8,74.6c4.2-10.1,8.4-20.2,13.8-29.7c0.8-1.4,1.6-2.8,2.1-4.3c0.6-2.2,0.9-4.4,0.7-6.7
	c-0.3-6.5-2-12.9-3.7-19.2C383.5,176.1,381.5,168.2,379.2,159.7z"/>
<path class="st2" d="M422.7,237.2c0.4,4.3,0.9,8.5,1.7,12.7c0.9,4.9,2.3,9.6,3.7,14.4c0.7,2.7,1.7,5.3,2.9,7.7
	c0.5,0.7,0.8,1.5,1.1,2.3c0.5,2-0.6,4-1.1,6c-1.4,6,2.9,12.7,0.2,18.2c-0.8,1.7-2.3,3.1-2.8,4.9c-0.6,2.1,0,4.3,0.3,6.4
	c0.9,6-1.2,12.1-3.2,17.9l-3.4,9.7c-3.1-5.8-6.3-11.7-10.6-16.8c-1.5-1.8-3.2-3.5-4.7-5.4c-2.1-3-3.8-6.3-5-9.7
	c-3.1-8.3-4.8-16.9-5.2-25.7c-0.2-2.5,0-5,0.9-7.4c0.7-1.4,1.4-2.7,2.2-4c2.7-4.8,3.2-10.5,3.2-16.1s-0.6-11.1,0-16.5
	c0.5-4.6,1.9-9,4-13.1c1.3-2.7,3.1-5,5.4-6.8c1.7-1.3,3.8-2,6-2c3.3,0.2,2.5,3,2.8,5.7L422.7,237.2z"/>
<path class="st2" d="M275.6,223.6c-2,6-3.9,12.1-5.5,18.2c-1.6,6-3,12-4.3,18.1c-0.6,2.7-1,5.4-1.1,8.1c0.1,3.2,0.7,6.4,1.6,9.4
	c6.4,23.2,18.2,44.6,31.4,64.8c3.8-4.7,8.3-8.8,13.3-12.1c0.4-0.2,0.8-0.6,1-1c0.3-0.8,0.1-1.6-0.3-2.3c-3.6-7.5-9.4-14.1-11.3-22.2
	c-0.8-3.4-0.8-6.9-1.6-10.3c-1.1-4.4-3.6-8.3-4.2-12.8c-0.6-4.9,1-10.2-1.3-14.5c4.6-1.8,7.3-6.6,9.3-11.2c2.1-4.7,3.6-9.6,4.5-14.7
	c1.4-9.7-0.5-19.6-5.4-28.1c-2.4-4.3-5.4-8.1-9-11.4c-1.2-1.1-4-4.1-5.7-4.1c-2.3,0-3,3.8-3.7,5.5
	C280.6,209.8,278,216.6,275.6,223.6z"/>
<path class="st5" d="M317.1,335.5c0.3,0.2,0.6,0.5,0.6,0.9s-0.4,0.5-0.6,0.6c-1.4,1-2.4,2.3-2.9,3.9c-1.7,3.7-3.1,7.6-4.3,11.5
	c-2.2-3.4-4.9-6.4-7.8-9.1c-2.3-2.1-4.8-4.1-6-6.9c0-0.1,5.2-4,5.7-4.4c1.5-1.3,3.3-4.9,4.8-5.7c1.7-0.9,3.4,2.6,4.7,4
	C312.9,332.2,314.9,334,317.1,335.5z"/>
<path class="st4" d="M398.4,119.1c-0.1-1.3-0.2-2.8-1.2-3.6c-0.9-0.6-1.9-0.9-3-0.8c-5.8-0.2-11.9,0.8-17.4-1.2
	c-3.6-1.3-6.7-3.8-10.2-5.3s-8-1.9-10.9,0.6c-2.2,2-2.8,5.1-3.5,7.9c-1.7,6.2-4.6,12.1-8.6,17.1c-2.7-0.8-4.6-3.3-5.9-5.8
	c-4.3-8.7-2.2-19,0.9-28.2c1-3.1,2.1-6.1,3.2-9.2l2.4-6.7c3.2-0.3,6.2-1.8,8.4-4.2l1,2.6c2.7-0.1,5.3-1,7.5-2.6c0.8,1.6,3,2,4.8,1.5
	s3.3-1.5,5-2c4.6-1.5,9.6,0.8,14.5,1.1c2.1-0.1,4.1,0,6.2,0.2c5.8,0.9,9.8,6.4,11.6,11.9c1.2,3.7,2.1,8.3,5.8,9.6
	c0.1,1.4-2.4,1.7-2.6,3c0,0.4,0.1,0.9,0.3,1.3l3.4,7.2c-1.6,0.4-3.3,0.3-4.8-0.2C403.5,116.7,398.5,121.9,398.4,119.1z"/>
<path class="st5" d="M568.1,134.8c1.7,5.5,3,11.1,4,16.7c0.7,4.2,1.1,8.9-1.3,12.5c9.3-13.9,18.9-28.3,33-37.3
	c-5.8-6.3-8.6-14.7-7.9-23.2c0.1-0.8-11.5,3.6-12.4,4.1c-4.1,2.3-7.8,5.1-11.8,7.5c-2.1,1.3-10.6,4.2-10.7,6c0,1.1,3.4,4.7,4,5.9
	C566.3,129.5,567.4,132.1,568.1,134.8z"/>
<path class="st3" d="M611.2,660.2c-4.7-3.3-10.7-3.7-15.8-1.2c-4.5,2.3-7.6,6.8-11.7,9.8c-7.1,5.1-16.4,5.5-24.7,8.3
	c-2.2,0.7-4.5,1.8-5.5,4c-0.6,1.8-0.5,3.8,0.4,5.6c1.4,3.1,3.8,5.6,6.9,7.1c3.7,1.8,8,1.9,12.1,1.9l35.8,0.4c11,0.1,22.1,0.3,33,1.6
	c2.5,0.3,5.3,0.7,7.6-0.6c3.7-2,4.1-7.1,3.8-11.2c-0.7-10.6-3.1-21-7-30.8c-0.4-1.1-1-2.3-2.2-2.5c-0.9,0-1.7,0.2-2.4,0.8
	c-10.1,6-22.9,9.4-33.6,4.6"/>
<path class="st2" d="M629.1,431.8c-4,23.2-1.4,47.1,3.1,70.2c0.8,4.6,1.9,9.2,3.3,13.6c1.6,5.1,3.8,10,5.3,15.1
	c3.8,13,3.3,26.9,2.7,40.5l-2.6,61.8c-0.2,5.2-0.4,10.5,1.1,15.4c0.6,2,1.4,4.5-0.2,5.8c-0.6,0.4-1.3,0.7-2.1,0.8
	c-7.2,1.3-14.5,0.2-21-3.2l-0.7-62.4c-0.2-19.2-0.5-38.5-3.4-57.5c-2.3-15.1-6.4-30-6.7-45.3c-0.3-16,3.6-31.8,7.6-47.3
	c0.9-3.3,4-5.8,6.6-8c0.9-0.9,2-1.6,3.2-1.9C626.5,429.2,628.3,430.8,629.1,431.8z"/>
<path class="st8" d="M629.1,431.8c-4,23.2-1.4,47.1,3.1,70.2c0.8,4.6,1.9,9.2,3.3,13.6c1.6,5.1,3.8,10,5.3,15.1
	c3.8,13,3.3,26.9,2.7,40.5l-2.6,61.8c-0.2,5.2-0.4,10.5,1.1,15.4c0.6,2,1.4,4.5-0.2,5.8c-0.6,0.4-1.3,0.7-2.1,0.8
	c-7.2,1.3-14.5,0.2-21-3.2l-0.7-62.4c-0.2-19.2-0.5-38.5-3.4-57.5c-2.3-15.1-6.4-30-6.7-45.3c-0.3-16,3.6-31.8,7.6-47.3
	c0.9-3.3,4-5.8,6.6-8c0.9-0.9,2-1.6,3.2-1.9C626.5,429.2,628.3,430.8,629.1,431.8z"/>
<path class="st2" d="M549.5,359.2c-1.5,6.1,1.7,12.4,1.3,18.7c-0.2,3.8-1.7,7.6-1,11.3s3.3,6.5,4.8,9.9c1,2.8,1.6,5.8,1.6,8.9
	c0.4,7.5,0.1,15-0.2,22.5c-0.5,12.5-0.8,25.1,0.8,37.5c1.4,10.7,4.4,21.2,8.7,31.1c1.3,2.7,2.4,5.5,3.2,8.4c0.6,2.7,0.9,5.4,1.1,8.1
	c1,8.9,3.3,17.6,7.1,25.7c2.5,5.6,7,10,8.4,15.9c1.3,5.7,0.4,11.6,1.4,17.4c0.7,4.3,2.4,8.3,3.4,12.5c1.3,5.4,1.2,11.1,1.8,16.6
	c1.8,16,9.1,32,4.7,47.5c-0.9,3.1-2.2,6.3-1.6,9.5c0.3,1.6,1.1,3.1,0.7,4.7c-0.3,1.3-1.3,2.3-1.8,3.6c-1,2.3,0.1,5.1,1.8,6.9
	c1.9,1.7,4.1,3,6.5,3.8c7.4,3.2,15,6.3,23,6.3c1,0.1,1.9-0.1,2.8-0.5c1.4-0.8,2.2-2.4,2.8-3.9l4.1-10.1c0.5-1.2,1-2.7,0.3-3.8
	c-0.5-0.6-1.1-1.2-1.7-1.6c-3.3-2.8-2.6-8-1.7-12.2c2.2-10.8,3.5-21.7,3.7-32.7c0.4-21.9-3.2-43.7-6.8-65.3
	c-1.3-7.5-2.5-15.1-5-22.3s-6.2-14.1-5.6-21.6c0.6-8.1-1.5-16.5,0-24.5s3.8-15.8,5.3-23.7c1.9-10.3,2.4-20.9,3-31.3
	c0.3-4.3,0.6-8.7,2.6-12.5c1.2-2.2,2.9-4.1,4.2-6.3c3.4-5.6,3.9-12.5,7.2-18.2c1.5-2.7,3.6-5.1,4.8-7.9c0.8-2.3,1.2-4.7,1.2-7.1
	c0.3-6,0-12.1-1-18c-17-8.7-35.9-13-55-12.8c-7.3,0.1-14.7,0.9-21.6,3.4C562.4,355.3,556.4,358.7,549.5,359.2z"/>
<path class="st3" d="M595,676c-2.9,3.7-2.7,8.9-4.6,13.2c-2.3,5.2-7.4,8.6-12.2,11.6l-30,19c-1.6,1-3.4,2.2-4,4.1
	c-0.3,1.2-0.2,2.4,0.2,3.6c1.5,5.1,5.4,9.1,10.5,10.6c2.7,0.6,5.4,0.9,8.1,0.8l13.5,0.2c4.1,0.2,8.2,0,12.3-0.5
	c3.7-0.5,7.4-1.6,11.1-2.3c6.8-1.2,13.7-1.1,20.5-2.3c4.2-0.8,8.3-1.9,12.3-3.2c4.9-1.5,9.9-3,14.1-5.9c1.2-0.7,2.1-1.7,2.7-2.9
	c0.7-1.7,0.3-3.5-0.1-5.3l-6.4-28.3c-0.4-2.4-1.2-4.6-2.5-6.6c-1.4-1.9-4-3.2-6.2-2.3c-0.9,0.4-1.8,0.9-2.6,1.6
	c-3.3,2.2-7.5,2.5-11.4,1.8c-2.5-0.5-5.8-1.1-7.9-2.8c-1.5-1.3-2-3.2-3.3-4.7c-3.6-3.7-9.6-3.8-13.3-0.2
	C595.4,675.5,595.2,675.7,595,676z"/>
<circle class="st5" cx="575.5" cy="94.8" r="36.1"/>
<path class="st4" d="M547.7,96.9c3.5-1.9,3.5-7.5,7-9.4s7.6,1.4,9.8,4.6c3.3,4.8,5.6,10.2,6.8,15.9c0.3,1.6,0.6,3.4,1.8,4.5
	s2.8,1.3,4.4,1.4c4.6,0.5,9.1,0.9,13.7,1.2c5.1,0.4,10.5,0.7,15.1-1.4c1.8-0.8,3.4-2.1,4.5-3.8c0.9-1.6,1.6-3.3,1.9-5.1
	c2.4-9.1,4.8-18.3,5-27.7c0.1-3.9-0.3-7.9-2.1-11.3c-1.1-2-2.7-3.7-3.1-5.9s1-5,3.3-4.8c-2.1,0.1-4.1-0.3-6-1.1
	c-1.8-1-3.2-3.2-2.5-5.1c-5.1,0.7-8.8-4.4-12.7-7.6c-0.6-0.6-1.5-1-2.4-1c-0.7,0.2-1.4,0.4-2,0.8c-2,0.7-4.1-0.6-6.1-1.2
	c-5.5-1.5-12.5,2.2-16.6-1.8c0.4,2.6-2.7,4.3-5.3,4.2s-5.2-1-7.7-0.1c1.3,2.4,0.4,5.5-2,6.8c-0.3,0.2-0.6,0.3-0.9,0.4l1.2,2.6
	c-2.5,0.5-4.6,2.4-5.3,4.9c-1.3,5.3-1,12.7-0.7,18.1C547,77.4,549.3,96,547.7,96.9z"/>
<path class="st7" d="M578.5,141.3c-18.2,20.4-22.8,49.1-26.6,76.2l-5.7,39.9c-1.5,10.4-3,20.7-4.3,31.1c-0.9,7.1-1.7,14.3-0.8,21.4
	c0.8,5.6,2.6,11,4.2,16.4c4.1,14.1,6.1,28.8,6,43.5c1.2-3.6,5.4-5,9.1-5.8c30.9-6.7,63.1-3.3,91.9,9.8c5-14.1,4.1-29.6,5.5-44.6
	c2-21.3,8.9-42,10.9-63.3c0.8-7.9,0.8-15.9,0.9-23.9c0.1-5.9,0.1-11.8-1.1-17.5c-1.4-6.3-4.2-12.3-7.2-18
	c-8.2-16-17.3-31.5-27.3-46.4c-5-7.5-10.3-14.9-15.7-22.1c-2.8-3.7-5.6-7.3-8.5-10.9c-2.8-3.5-4-6.5-8.4-4.4
	C593,126.8,584.6,134.5,578.5,141.3z"/>
<path class="st5" d="M588.9,311.2c-4.4,0.2-8.9,0-13.3-0.4c-3.3-0.3-6.6-0.8-9.8,0c-1.4,0.3-2.7,1-3.8,1.9c-1.2,1.1-1.3,2.9-0.2,4.1
	c0.5,0.5,1.1,0.9,1.9,0.9l3.4,0.3c2.2,0.2,4.4,0.4,6.1,2c0.7,0.6,1.1,1.5,1.2,2.4c0.2,2.3-1.8,3.6-3.6,4.6c-2.6,1.2-5,2.8-7.1,4.7
	c-1.7,1.6-2.7,3.7-2.9,6c0,0.6,0.5,1.2,1.1,1.2c0.2,0,0.4,0,0.6-0.1c4-2,6.6-7.9,11-6.9c-4,1.3-7.4,3.9-9.7,7.4
	c-1.4,2.1-0.8,4.8,1.3,6.2c1.4,0.9,3.2,1,4.7,0.1c0.6-0.4,1.3-0.8,1.9-1.3c3-2.4,5.6-5.2,7.9-8.2c-3.2,6.8-6.4,14.6-2.8,21.4
	c0.4,0.8,1.2,1.2,2,1.2c1.2-0.1,1.5-1.2,1.7-2.2c0.6-3.1,0.8-6.4,2.3-9.1c3.5-6.4,12.2-7,18.8-10.1c7.9-3.7,13.4-11.6,15.5-20.1
	c0.8-2.5,0.9-5.1,0.4-7.6c-1.5-5.7-8.5-7-13-4.3C599.1,308.8,595.9,311,588.9,311.2z"/>
<path class="st8" d="M581.9,199.3c7,10.8,19.2,16.9,29.6,24.5c2.5,1.7,4.8,3.8,6.5,6.2c2.6,4.1,3,9.2,2.5,14
	c-0.7,6.3-2.7,12.4-4.7,18.4l-4.4,13c-2.8,8.3-5.6,16.7-10.9,23.7c-1.3,1.8-2.9,3.7-2.9,5.9c0.1,1.3,0.6,2.5,1.3,3.6
	c3.4,5.6,8.9,9.5,15.3,10.9c1.9,0.5,3.9,0.5,5.8,0c2.7-0.8,4.7-3,6.6-5.1c9-9.9,18-20,24.5-31.6c6.3-11.4,10.2-24,13.7-36.5
	c1.4-4.6,2.4-9.3,3-14.1c0.7-9-1.6-18-5.5-26.1s-9.2-15.5-14.6-22.6c-5.2-7-10.9-13.6-17.2-19.7c-10.9-10.2-24.2-16.1-38.8-10.4
	c-10.3,4.1-14.1,12.6-15,23.5C575.8,184.7,577.7,192.6,581.9,199.3z"/>
<path class="st7" d="M585.5,196.5c7,10.8,19.2,16.9,29.6,24.5c2.5,1.7,4.7,3.8,6.5,6.3c2.6,4.1,3,9.2,2.5,14
	c-0.7,6.3-2.7,12.4-4.7,18.4l-4.4,13c-2.8,8.3-5.6,16.7-10.9,23.7c-1.3,1.8-2.9,3.6-2.8,5.9c0.1,1.3,0.6,2.5,1.3,3.6
	c3.4,5.6,8.9,9.5,15.3,10.9c1.9,0.5,3.9,0.5,5.8,0c2.7-0.8,4.7-3,6.6-5.1c9-9.9,18-20,24.5-31.6c6.3-11.4,10.2-24,13.7-36.5
	c1.4-4.6,2.4-9.3,3-14.1c0.7-9-1.6-18-5.5-26.1s-9.2-15.5-14.6-22.6c-5.2-7-10.9-13.5-17.2-19.6c-10.9-10.2-24.2-16.1-38.7-10.4
	c-10.3,4.1-14.1,12.6-15.1,23.5C579.5,182,581.3,189.9,585.5,196.5z"/>
<path class="st2" d="M806.7,555.2c0,2.6-0.3,5.2-0.8,7.8c-0.1,0.5-0.2,1-0.3,1.4c-2.8,11.4-10.8,19.7-20.4,20.3c-0.3,0-0.6,0-1,0
	c-10.1,0-18.7-8.7-21.5-20.7c-0.1-0.3-0.2-0.6-0.2-1c-0.5-2.6-0.8-5.2-0.8-7.8c0-16.3,10.1-29.5,22.5-29.5S806.7,539,806.7,555.2z"
	/>
<path class="st8" d="M806.7,555.2c0,2.6-0.3,5.2-0.8,7.8c-0.1,0.5-0.2,1-0.3,1.4c-0.3,0-0.7,0-1,0c-2.5-0.1-4.9-0.5-7.4-1
	c-2.1,0.7-4.3,1.2-6.6,1.5c-1.7,0.3-3.4,0.4-5.1,0.5h-1.7c-2.1,0-4.1-0.1-6.2-0.4c-3.3-0.4-6.5-1.2-9.7-2.4c-1.7,0.6-3.5,1-5.2,1.4
	c-0.1-0.3-0.2-0.6-0.2-1c-0.5-2.6-0.8-5.2-0.8-7.8c0-16.3,10.1-29.5,22.5-29.5S806.7,539,806.7,555.2z"/>
<path class="st7" d="M854.7,500.4c0-7.2-1.7-14.2-4.9-20.6l-26.5,8.2l23.2-13.7c-7.9-11.4-20.5-18.6-34.4-19.6
	c-1.1-1.6-2.3-3.2-3.6-4.7l-38,11.8l31.2-18.3c-20-15.4-48.7-11.6-64.1,8.4c-3.6,4.8-6.3,10.2-7.9,16l32.5,37.5L727,479.9
	c-20.6,14.6-25.5,43.2-10.8,63.8c11.7,16.4,32.7,23.3,51.8,16.9c9.4,3.5,19.7,3.7,29.3,0.8c24.7,5.4,49.1-10.2,54.5-34.9
	c0.7-3.2,1.1-6.5,1.1-9.8c0-1,0-2-0.1-3C854,509.4,854.7,504.9,854.7,500.4z"/>
<path class="st8" d="M853.9,508.9c-14-2.6-28.3-2.8-42.3-0.5c-15.9,2.6-32.1,8.4-47.7,4.2c-9.1-2.5-17-8.2-25.9-11.4
	c-8.6-3-17.9-3.6-26.8-1.6c-9.7,23.3,1.3,50.1,24.6,59.9c10.2,4.3,21.6,4.7,32.1,1.2c9.4,3.5,19.7,3.7,29.3,0.8
	c24.7,5.4,49.1-10.2,54.5-34.9c0.7-3.2,1.1-6.5,1.1-9.8c0-1,0-2-0.1-3C853.2,512.1,853.6,510.5,853.9,508.9z"/>
</svg>
